<svg width="22" height="22" viewBox="0 0 22 22" fill="none" xmlns="http://www.w3.org/2000/svg">
<path d="M21 3.5H18.7778M21 11H15.4444M21 18.5H15.4444M5.44444 21V12.9515C5.44444 12.6915 5.44444 12.5615 5.42176 12.4371C5.40163 12.3269 5.36834 12.2201 5.3228 12.1197C5.27146 12.0067 5.19927 11.9052 5.05488 11.7021L1.38957 6.54783C1.24518 6.34479 1.17299 6.24326 1.12164 6.13021C1.0761 6.02991 1.04281 5.92315 1.02269 5.81282C1 5.68847 1 5.55846 1 5.29844V3C1 2.29994 1 1.9499 1.1211 1.68251C1.22763 1.44731 1.39761 1.25609 1.60668 1.13624C1.84436 1 2.1555 1 2.77778 1H12.5556C13.1779 1 13.489 1 13.7267 1.13624C13.9358 1.25609 14.1057 1.44731 14.2122 1.68251C14.3333 1.9499 14.3333 2.29994 14.3333 3V5.29844C14.3333 5.55846 14.3333 5.68847 14.3107 5.81282C14.2906 5.92315 14.2572 6.02991 14.2117 6.13021C14.1603 6.24326 14.0881 6.34479 13.9438 6.54783L10.2784 11.7021C10.1341 11.9052 10.0619 12.0067 10.0106 12.1197C9.965 12.2201 9.93167 12.3269 9.91156 12.4371C9.88889 12.5615 9.88889 12.6915 9.88889 12.9515V17.25L5.44444 21Z" stroke="black" stroke-opacity="0.5" stroke-width="2" stroke-linecap="round" stroke-linejoin="round"/>
</svg>
